<svg xmlns="http://www.w3.org/2000/svg" viewBox="0 0 128 128" role="img" aria-label="Dossier folder logo">
  <defs>
    <linearGradient id="bg" x1="0" y1="0" x2="1" y2="1">
      <stop offset="0" stop-color="#0f1620" />
      <stop offset="1" stop-color="#0a1018" />
    </linearGradient>
    <linearGradient id="folder" x1="0" y1="0" x2="0" y2="1">
      <stop offset="0" stop-color="#3b5567" />
      <stop offset="1" stop-color="#233746" />
    </linearGradient>
    <linearGradient id="tab" x1="0" y1="0" x2="1" y2="0">
      <stop offset="0" stop-color="#6ccbe9" />
      <stop offset="1" stop-color="#4a9ec4" />
    </linearGradient>
  </defs>
  <circle cx="64" cy="64" r="58" fill="url(#bg)" stroke="#5ca9cd" stroke-width="4" />
  <path d="M24 45h34l7 7h39v30c0 8-6 14-14 14H38c-8 0-14-6-14-14z" fill="url(#folder)" />
  <path d="M24 45c0-7 5-12 12-12h24l8 8h22c8 0 14 6 14 14v2H24z" fill="#2a3e4d" />
  <rect x="34" y="56" width="60" height="30" rx="6" fill="#1a2834" stroke="#395364" stroke-width="1.5" />
  <path d="M34 56h24l6-7h30v9H34z" fill="url(#tab)" />
  <path d="M43 67h42M43 74h34" stroke="#8bd8f3" stroke-width="2" stroke-linecap="round" opacity="0.82" />
</svg>
